<svg width="12" height="10" viewBox="0 0 12 10" fill="none" xmlns="http://www.w3.org/2000/svg">
<path d="M10.111 1.17245C10.1792 1.10281 10.2607 1.0475 10.3506 1.00973C10.4405 0.971967 10.537 0.952515 10.6345 0.952515C10.732 0.952515 10.8285 0.971967 10.9184 1.00973C11.0083 1.0475 11.0897 1.10281 11.158 1.17245C11.444 1.46145 11.448 1.92845 11.168 2.22245L5.25498 9.21245C5.18785 9.28617 5.10638 9.34542 5.01556 9.38657C4.92474 9.42772 4.82648 9.44992 4.72679 9.45179C4.6271 9.45366 4.52807 9.43517 4.43577 9.39746C4.34347 9.35975 4.25983 9.3036 4.18998 9.23245L0.59198 5.58645C0.453217 5.44493 0.375488 5.25464 0.375488 5.05645C0.375488 4.85825 0.453217 4.66796 0.59198 4.52645C0.660226 4.45681 0.741679 4.4015 0.831569 4.36373C0.921459 4.32597 1.01798 4.30651 1.11548 4.30651C1.21298 4.30651 1.3095 4.32597 1.39939 4.36373C1.48928 4.4015 1.57073 4.45681 1.63898 4.52645L4.69098 7.61945L10.091 1.19445C10.0972 1.18672 10.1039 1.17937 10.111 1.17245Z" fill="#286CB0"/>
</svg>
